HIERARCHY
ROOT Hips
{
 OFFSET 0.000000 0.000000 0.000000
 CHANNELS 6 Xposition Yposition Zposition Yrotation Xrotation Zrotation
 JOINT Chest
 {
  OFFSET 0.000000 9.588913 -0.003946
  CHANNELS 3 Yrotation Xrotation Zrotation
  JOINT Chest2
  {
   OFFSET 0.000000 9.541882 0.008053
   CHANNELS 3 Yrotation Xrotation Zrotation
   JOINT Chest3
   {
    OFFSET 0.000000 9.501360 0.000000
    CHANNELS 3 Yrotation Xrotation Zrotation
    JOINT Chest4
    {
     OFFSET 0.000000 9.491660 0.000000
     CHANNELS 3 Yrotation Xrotation Zrotation
     JOINT Neck
     {
      OFFSET 0.000000 14.331917 0.000000
      CHANNELS 3 Yrotation Xrotation Zrotation
      JOINT Head
      {
       OFFSET 0.000000 8.884799 0.017034
       CHANNELS 3 Yrotation Xrotation Zrotation
       End Site
       {
        OFFSET 0.000000 16.896195 0.008993
       }
      }
     }
     JOINT RightCollar
     {
      OFFSET -2.923010 9.499495 0.000000
      CHANNELS 3 Yrotation Xrotation Zrotation
      JOINT RightShoulder
      {
       OFFSET -13.795216 0.000000 0.000000
       CHANNELS 3 Yrotation Xrotation Zrotation
       JOINT RightElbow
       {
        OFFSET -30.272209 0.000000 0.000000
        CHANNELS 3 Yrotation Xrotation Zrotation
        JOINT RightWrist
        {
         OFFSET -24.478199 0.000000 0.000000
         CHANNELS 3 Yrotation Xrotation Zrotation
         End Site
         {
          OFFSET -18.090752 0.000000 0.000000
         }
        }
       }
      }
     }
     JOINT LeftCollar
     {
      OFFSET 2.923010 9.499495 0.000000
      CHANNELS 3 Yrotation Xrotation Zrotation
      JOINT LeftShoulder
      {
       OFFSET 13.795216 0.000000 0.000000
       CHANNELS 3 Yrotation Xrotation Zrotation
       JOINT LeftElbow
       {
        OFFSET 30.272209 0.000000 0.000000
        CHANNELS 3 Yrotation Xrotation Zrotation
        JOINT LeftWrist
        {
         OFFSET 24.478199 0.000000 0.000000
         CHANNELS 3 Yrotation Xrotation Zrotation
         End Site
         {
          OFFSET 18.090752 0.000000 0.000000
         }
        }
       }
      }
     }
    }
   }
  }
 }
 JOINT RightHip
 {
  OFFSET -7.826875 0.019532 0.001973
  CHANNELS 3 Yrotation Xrotation Zrotation
  JOINT RightKnee
  {
   OFFSET 0.000000 -40.546152 -0.001885
   CHANNELS 3 Yrotation Xrotation Zrotation
   JOINT RightAnkle
   {
    OFFSET 0.000000 -39.417092 -0.003189
    CHANNELS 3 Yrotation Xrotation Zrotation
    JOINT RightToe
    {
     OFFSET 0.000000 -7.579396 17.243563
     CHANNELS 3 Yrotation Xrotation Zrotation
     End Site
     {
      OFFSET 0.000000 -1.500329 6.694466
     }
    }
   }
  }
 }
 JOINT LeftHip
 {
  OFFSET 7.826875 0.019532 0.001973
  CHANNELS 3 Yrotation Xrotation Zrotation
  JOINT LeftKnee
  {
   OFFSET 0.000000 -40.546152 -0.001885
   CHANNELS 3 Yrotation Xrotation Zrotation
   JOINT LeftAnkle
   {
    OFFSET 0.000000 -39.417092 -0.003189
    CHANNELS 3 Yrotation Xrotation Zrotation
    JOINT LeftToe
    {
     OFFSET 0.000000 -7.579396 17.243563
     CHANNELS 3 Yrotation Xrotation Zrotation
     End Site
     {
      OFFSET 0.000000 -1.500329 6.694466
     }
    }
   }
  }
 }
}
MOTION
Frames: 11
Frame Time: 0.008333
0.000000 87.345680 0.000000 0.000000 -5.767889 0.000000 0.000000 11.653876 0.000000 0.000000 -5.885988 0.000000 0.000000 -0.000000 0.000000 0.000000 -0.000000 0.000000 0.000000 12.528808 0.000000 0.000000 0.711711 0.000000 0.000000 -0.000000 0.000000 0.000000 -0.000000 0.000000 2.309063 -0.000000 0.000000 -2.309063 -0.000000 -0.000000 0.000000 -0.000000 0.000000 0.000000 0.000000 0.000000 -2.309063 0.000000 0.000000 2.309063 -0.000000 0.000000 0.000000 8.520374 0.000000 0.000000 1.905768 0.000000 -0.000000 -4.658254 0.000000 0.000000 -0.000000 0.000000 0.000000 8.520374 0.000000 0.000000 1.905768 0.000000 -0.000000 -4.658254 0.000000 0.000000 -0.000000 0.000000
12.190199 89.171582 -0.207438 49.508541 -3.988054 -0.414296 -1.283418 0.593538 -0.386327 -0.716826 0.347239 -0.212175 -0.896237 0.433631 -0.265897 -0.716826 0.347239 -0.212175 3.140411 20.552126 0.420324 3.260655 -3.860106 -0.268205 -1.516541 2.317737 0.954716 -7.446697 6.836874 91.045565 -0.055790 -7.484182 0.113515 1.578320 -2.900164 1.810723 3.810030 1.870372 0.509029 13.414532 5.733269 -85.360303 -0.329764 3.332932 -0.587376 2.911393 -3.444265 -2.334440 -0.916553 5.860517 -0.336373 -1.144299 2.658226 -0.130277 0.344796 -4.489849 1.060684 -0.049902 -0.020132 -0.029177 0.088735 7.111055 -1.111600 0.025556 -0.511097 0.091313 -1.319446 -2.939991 1.327751 0.030479 -0.083132 -0.051363
12.195195 89.170542 -0.175113 49.555051 -3.959067 -0.410820 -1.276429 0.585507 -0.390603 -0.713856 0.340116 -0.216095 -0.892523 0.424722 -0.270781 -0.713856 0.340116 -0.216095 3.135822 20.549866 0.424805 3.254644 -3.862913 -0.262371 -1.500324 2.268848 0.978753 -7.341030 6.821501 91.056776 -0.093792 -7.465423 0.107756 1.597605 -2.905557 1.826125 3.783383 1.800749 0.471645 13.287322 5.650998 -85.380874 -0.255548 3.075687 -0.661435 2.697072 -3.538776 -2.252850 -0.927122 5.891049 -0.322324 -1.159178 2.587332 -0.136370 0.324561 -4.473505 1.054005 -0.047336 -0.017649 -0.028847 0.107099 7.089643 -1.086473 0.004458 -0.503065 0.077063 -1.370199 -2.942043 1.335757 0.032362 -0.078790 -0.052079
12.201726 89.169280 -0.137625 49.602481 -3.925812 -0.406204 -1.270144 0.574573 -0.396148 -0.711614 0.332387 -0.220392 -0.889720 0.415054 -0.276134 -0.711614 0.332387 -0.220392 3.133733 20.548039 0.428395 3.251542 -3.865118 -0.258060 -1.484866 2.216150 1.002533 -7.249561 6.805890 91.069715 -0.115803 -7.467637 0.103767 1.621191 -2.913132 1.837541 3.763602 1.731745 0.442385 13.150998 5.559926 -85.409662 -0.174146 2.816452 -0.731656 2.465370 -3.641852 -2.160138 -0.931717 5.921614 -0.305787 -1.179673 2.514515 -0.143445 0.299844 -4.459206 1.046463 -0.045485 -0.015321 -0.028937 0.129416 7.068510 -1.059439 -0.023095 -0.498566 0.061696 -1.418222 -2.944320 1.344670 0.033118 -0.075016 -0.054438
12.210100 89.167888 -0.096162 49.649942 -3.892327 -0.400270 -1.263716 0.562140 -0.402002 -0.709489 0.324600 -0.224870 -0.887064 0.405312 -0.281715 -0.709489 0.324600 -0.224870 3.132872 20.546876 0.429912 3.250249 -3.866496 -0.256243 -1.476241 2.159816 1.019542 -7.166060 6.793112 91.092106 -0.121462 -7.489791 0.101209 1.651264 -2.923668 1.841786 3.748179 1.663695 0.419846 13.004345 5.464039 -85.448039 -0.091642 2.561814 -0.797927 2.223344 -3.751469 -2.057478 -0.931601 5.955331 -0.288321 -1.204384 2.440384 -0.150355 0.271778 -4.446401 1.036344 -0.044360 -0.013430 -0.028100 0.151222 7.051447 -1.033350 -0.052434 -0.497504 0.047432 -1.461197 -2.947058 1.352288 0.033501 -0.071807 -0.056553
12.220097 89.166438 -0.052101 49.693025 -3.859934 -0.393172 -1.254466 0.548697 -0.407131 -0.705713 0.316676 -0.229263 -0.882343 0.395402 -0.287187 -0.705713 0.316676 -0.229263 3.131267 20.546531 0.429342 3.248645 -3.866951 -0.256487 -1.474309 2.101759 1.028850 -7.096839 6.784498 91.123873 -0.113150 -7.526965 0.102313 1.692382 -2.936212 1.836808 3.726226 1.596750 0.400798 12.855018 5.368505 -85.495370 -0.014706 2.316502 -0.859294 1.978154 -3.864108 -1.949619 -0.925983 5.992609 -0.271594 -1.226618 2.364202 -0.156959 0.243274 -4.433464 1.024308 -0.043175 -0.011916 -0.026056 0.171431 7.039451 -1.009367 -0.078883 -0.499763 0.034565 -1.497460 -2.950443 1.357921 0.033676 -0.069103 -0.057446
12.231282 89.164982 -0.006491 49.731002 -3.829126 -0.385986 -1.243142 0.534727 -0.411573 -0.700603 0.308788 -0.233591 -0.875953 0.385536 -0.292579 -0.700603 0.308788 -0.233591 3.130836 20.547328 0.428145 3.248466 -3.866044 -0.257666 -1.475126 2.045075 1.036470 -7.043922 6.774947 91.156737 -0.095696 -7.574101 0.106177 1.745746 -2.947680 1.828652 3.697848 1.531849 0.384550 12.708357 5.275411 -85.547481 0.049642 2.088317 -0.916744 1.734854 -3.974391 -1.840393 -0.915128 6.033711 -0.255623 -1.245893 2.284799 -0.163298 0.217949 -4.419220 1.012270 -0.041326 -0.010585 -0.023887 0.188597 7.030878 -0.986287 -0.102222 -0.502017 0.021216 -1.524159 -2.956501 1.362280 0.033622 -0.066402 -0.056721
12.243056 89.163526 0.039806 49.764939 -3.798613 -0.379742 -1.232924 0.519889 -0.416550 -0.695910 0.300514 -0.238119 -0.870086 0.375188 -0.298219 -0.695910 0.300514 -0.238120 3.135694 20.550140 0.427646 3.253857 -3.862623 -0.259305 -1.468705 1.992903 1.049079 -7.003685 6.758842 91.184296 -0.072140 -7.634377 0.110438 1.807168 -2.956348 1.825046 3.672399 1.471046 0.370653 12.570772 5.186417 -85.597039 0.096453 1.886757 -0.973635 1.495910 -4.070216 -1.729983 -0.900519 6.075835 -0.237829 -1.264075 2.204040 -0.170619 0.191481 -4.404413 1.001516 -0.039418 -0.009194 -0.022661 0.202959 7.022275 -0.962816 -0.126190 -0.501278 0.008311 -1.542685 -2.966540 1.364274 0.033732 -0.063365 -0.054506
12.254983 89.162032 0.085960 49.795007 -3.766284 -0.373711 -1.225076 0.503845 -0.422136 -0.692314 0.291579 -0.242878 -0.865587 0.364014 -0.304148 -0.692314 0.291579 -0.242878 3.146769 20.554111 0.427767 3.265825 -3.857632 -0.261698 -1.451383 1.944812 1.066353 -6.969310 6.731821 91.206594 -0.049079 -7.707686 0.114711 1.874187 -2.965884 1.822767 3.652198 1.416790 0.356370 12.456560 5.098654 -85.639224 0.127069 1.726056 -1.035007 1.259186 -4.152315 -1.622587 -0.884248 6.114803 -0.218924 -1.280382 2.124943 -0.177923 0.160508 -4.390408 0.990830 -0.037450 -0.007513 -0.021972 0.216896 7.011372 -0.939092 -0.150502 -0.498473 -0.003819 -1.559395 -2.979172 1.362964 0.034004 -0.060293 -0.050743
12.267096 89.160462 0.131442 49.823372 -3.732041 -0.366288 -1.218890 0.486963 -0.428188 -0.689456 0.282166 -0.247777 -0.862013 0.352240 -0.310251 -0.689456 0.282166 -0.247777 3.160827 20.557825 0.428327 3.280910 -3.852821 -0.264304 -1.431116 1.900906 1.085225 -6.931003 6.689202 91.223951 -0.033264 -7.789695 0.119836 1.944677 -2.973780 1.817373 3.632553 1.371211 0.341409 12.378790 5.008097 -85.673069 0.144507 1.617634 -1.104486 1.027338 -4.234654 -1.528185 -0.865481 6.149860 -0.200172 -1.300877 2.048774 -0.186399 0.128633 -4.377887 0.979984 -0.035555 -0.005503 -0.020856 0.227762 6.998192 -0.916558 -0.171814 -0.494851 -0.016836 -1.576927 -2.992589 1.359309 0.033630 -0.057805 -0.045581
12.279589 89.158781 0.176046 49.853833 -3.696907 -0.356685 -1.214451 0.469659 -0.435194 -0.687692 0.272408 -0.252820 -0.859804 0.340034 -0.316535 -0.687692 0.272408 -0.252820 3.175118 20.561074 0.428980 3.296220 -3.848531 -0.266864 -1.412474 1.860542 1.103249 -6.878000 6.632225 91.236863 -0.025238 -7.881014 0.125053 2.011429 -2.978092 1.810841 3.611271 1.334157 0.328016 12.328996 4.915953 -85.702624 0.149632 1.544161 -1.180524 0.808605 -4.315907 -1.451402 -0.846107 6.181765 -0.181544 -1.327975 1.976777 -0.198849 0.097372 -4.367992 0.971111 -0.034370 -0.003069 -0.019705 0.229984 6.983445 -0.897277 -0.188251 -0.490568 -0.030420 -1.593234 -3.005553 1.353431 0.032455 -0.056379 -0.039172
